<?xml version="1.0" encoding="UTF-8"?>
<svg version="1.1" xmlns="http://www.w3.org/2000/svg" width="1667" height="489">
<path d="M0 0 C31.02 0 62.04 0 94 0 C94 30.36 94 60.72 94 92 C124.36 92 154.72 92 186 92 C186 61.64 186 31.28 186 0 C216.69 0 247.38 0 279 0 C279 30.69 279 61.38 279 93 C248.64 93 218.28 93 187 93 C187 123.36 187 153.72 187 185 C217.36 185 247.72 185 279 185 C279 216.02 279 247.04 279 279 C248.31 279 217.62 279 186 279 C185.67 248.97 185.34 218.94 185 188 C176.78222656 197.85359375 176.78222656 197.85359375 168.3984375 207.90625 C160.86792736 216.57230426 153.17772184 225.07957498 145.375 233.5 C144.87450748 234.04131703 144.37401496 234.58263406 143.858356 235.14035463 C119.91295261 260.98469425 97.71831554 283.9148272 60.45611572 285.3734436 C54.04862971 285.47164667 47.70054294 285.16663613 41.3125 284.6875 C40.26636284 284.60960236 39.22022568 284.53170471 38.14238739 284.45144653 C25.28077777 283.42095728 12.63184889 281.61652788 0 279 C-2.83411712 265.31769241 -4.6498913 251.62220919 -5.6875 237.6875 C-5.76539764 236.64893608 -5.84329529 235.61037216 -5.92355347 234.54033661 C-7.70860148 207.52065982 -3.41047901 185.78110446 14.38676453 165.01075745 C24.12877085 153.9149769 34.66548768 143.64240586 45.5 133.625 C46.04360814 133.12126972 46.58721627 132.61753943 47.14729738 132.0985446 C61.38540685 118.9216614 76.08394429 106.43980314 91 94 C60.97 93.67 30.94 93.34 0 93 C0 62.31 0 31.62 0 0 Z " fill="#EF4C23" transform="translate(70,105)"/>
<path d="M0 0 C7.84298089 -0.09968104 15.68558419 -0.17185091 23.52905273 -0.21972656 C26.19148591 -0.23742784 28.85303133 -0.26689782 31.51538086 -0.30175781 C54.23164824 -0.59151699 73.33683818 0.07917548 90.7109375 16.515625 C105.10674302 32.13974157 106.93041208 50.75280013 106.1953125 71.02929688 C105.19187511 86.29157951 98.15363961 99.69079998 87 110 C68.64022269 124.39009573 46.22560188 123.29046573 24.125 123.125 C21.77995174 123.11494933 19.43489931 123.10582718 17.08984375 123.09765625 C11.39312461 123.07581005 5.69660926 123.04139515 0 123 C0 118.71 0 114.42 0 110 C3.63 110 7.26 110 11 110 C11 77.99 11 45.98 11 13 C7.37 13 3.74 13 0 13 C0 8.71 0 4.42 0 0 Z M27 13 C27 44.68 27 76.36 27 109 C54.75828804 109.78219352 54.75828804 109.78219352 78.25 97.4375 C88.02009355 86.8976415 91.68928883 72.41856 91.28125 58.32421875 C90.38470176 47.72751659 87.76519144 38.94918456 82 30 C81.4225 29.0925 80.845 28.185 80.25 27.25 C65.1616789 12.1616789 47.66343272 13 27 13 Z " fill="#4B4F55" transform="translate(742,128)"/>
<path d="M0 0 C57.7027027 0 57.7027027 0 69.6875 10.3125 C78.02098688 19.99736313 79.9387306 29.37928864 79 42 C77.44056898 51.94628691 72.96350395 60.29040672 65.078125 66.6484375 C60.98807682 69.30850643 56.50464802 71.15904077 52 73 C58.98926899 84.33083844 66.19665375 95.51136683 73.484375 106.65234375 C74.07025391 107.54808105 74.65613281 108.44381836 75.25976562 109.36669922 C76.42290488 111.12674691 77.59881193 112.87842111 78.78710938 114.62158203 C79.33689453 115.42837402 79.88667969 116.23516602 80.453125 117.06640625 C80.94458008 117.77869385 81.43603516 118.49098145 81.94238281 119.22485352 C83 121 83 121 83 123 C67.29028133 124.49616368 67.29028133 124.49616368 62.66796875 121.4765625 C60.78899751 118.76513565 59.43226458 115.97470335 58 113 C56.15560901 109.82310388 54.22885068 106.69640326 52.3125 103.5625 C49.09339793 98.29410748 45.9856379 93.0416758 43.2265625 87.515625 C42.52406372 86.20549438 42.52406372 86.20549438 41.80737305 84.86889648 C40.4375 82.3125 40.4375 82.3125 39.32739258 79.82836914 C37.94823248 77.05174019 37.94823248 77.05174019 34 74 C27.73 73.67 21.46 73.34 15 73 C15 89.5 15 106 15 123 C10.05 123 5.1 123 0 123 C0 82.41 0 41.82 0 0 Z M15 13 C15 28.51 15 44.02 15 60 C19.24875 60.061875 23.4975 60.12375 27.875 60.1875 C29.85282471 60.22846802 29.85282471 60.22846802 31.87060547 60.27026367 C42.15958357 60.34221998 50.76954427 59.3086995 58.37109375 51.9375 C63.11040652 46.30033182 63.56106864 40.08806259 63.34375 32.8984375 C62.63514404 26.92360086 60.1614119 22.83204484 55.875 18.6875 C47.55849311 12.38495874 37.89191392 12.6050129 27.875 12.8125 C23.62625 12.874375 19.3775 12.93625 15 13 Z " fill="#4B4F55" transform="translate(887,128)"/>
<path d="M0 0 C4.95 0 9.9 0 15 0 C15 17.49 15 34.98 15 53 C35.79 53 56.58 53 78 53 C78 35.51 78 18.02 78 0 C83.28 0 88.56 0 94 0 C94 40.59 94 81.18 94 123 C88.72 123 83.44 123 78 123 C78 104.52 78 86.04 78 67 C57.21 67 36.42 67 15 67 C15 85.48 15 103.96 15 123 C10.05 123 5.1 123 0 123 C0 82.41 0 41.82 0 0 Z " fill="#4B4F55" transform="translate(488,128)"/>
<path d="M0 0 C7.26 0 14.52 0 22 0 C27.8381192 14.84053066 33.38095269 29.7791433 38.875 44.75 C40.49552881 49.16073198 42.11669591 53.57122903 43.73817635 57.98161125 C44.20710759 59.25719403 44.6759631 60.53280465 45.14474297 61.80844307 C48.46407188 70.84069564 51.80071016 79.86639552 55.15234375 88.88671875 C55.94874991 91.03221935 56.74513714 93.17772697 57.54150391 95.32324219 C58.67042392 98.36433845 59.80038973 101.40502357 60.93377686 104.44445801 C61.9651727 107.21063468 62.99274266 109.97820429 64.01953125 112.74609375 C64.32471176 113.56099777 64.62989227 114.37590179 64.94432068 115.21549988 C67 120.77252488 67 120.77252488 67 123 C61.72 123 56.44 123 51 123 C49.89521463 120.16690656 48.7911567 117.3335331 47.6875 114.5 C47.37876953 113.70851563 47.07003906 112.91703125 46.75195312 112.1015625 C46.13378436 110.51384484 45.51773289 108.92530119 44.90380859 107.3359375 C44.30844587 105.79719342 43.70734304 104.2606561 43.10009766 102.7265625 C41.9133056 99.67899771 41 97.3009833 41 94 C21.2 94 1.4 94 -19 94 C-19.33 95.98 -19.66 97.96 -20 100 C-20.55520713 101.71970846 -21.15999753 103.42417689 -21.8125 105.109375 C-22.16570313 106.02847656 -22.51890625 106.94757813 -22.8828125 107.89453125 C-23.43582031 109.30798828 -23.43582031 109.30798828 -24 110.75 C-24.36867188 111.70777344 -24.73734375 112.66554688 -25.1171875 113.65234375 C-27.80958851 120.61917702 -27.80958851 120.61917702 -29 123 C-34.28 123 -39.56 123 -45 123 C-42.60176442 114.58222842 -39.64703613 106.41446892 -36.58203125 98.22265625 C-36.04611486 96.78318922 -35.51048214 95.34361655 -34.97511292 93.90394592 C-33.55107755 90.07685916 -32.1232386 86.25120225 -30.69463348 82.4258194 C-29.22007115 78.47532684 -27.7491026 74.52349675 -26.27783203 70.57177734 C-23.94074177 64.29572325 -21.60177614 58.0203717 -19.26123047 51.74560547 C-16.41095627 44.10405505 -13.56528325 36.46080529 -10.72265625 28.81640625 C-10.14899071 27.27373833 -10.14899071 27.27373833 -9.56373596 25.6999054 C-8.84214888 23.7594047 -8.12057532 21.81889897 -7.39901733 19.87838745 C-4.934438 13.25160333 -2.4670043 6.62588163 0 0 Z M10 15 C6.99739176 23.17825607 3.99823607 31.35776732 1.00351715 39.53891563 C-0.38706259 43.33744447 -1.77884115 47.13552513 -3.17333984 50.93261719 C-4.51830877 54.59497933 -5.86015411 58.25847171 -7.19981384 61.92277908 C-7.71223675 63.32266838 -8.22579618 64.72214219 -8.74049377 66.12119675 C-9.45953939 68.07630196 -10.17458048 70.03282696 -10.88867188 71.98974609 C-11.2972644 73.1044931 -11.70585693 74.21924011 -12.12683105 75.36776733 C-13.10495027 77.85416733 -13.10495027 77.85416733 -13 80 C2.84 80 18.68 80 35 80 C33.08022845 73.6007615 31.12414462 67.32252265 28.85546875 61.0546875 C28.56319901 60.241138 28.27092926 59.4275885 27.96980286 58.58938599 C27.35504833 56.87978311 26.73904226 55.17062979 26.12182617 53.46191406 C25.19750779 50.90270906 24.27711859 48.34211903 23.35742188 45.78125 C19.6549065 35.4889947 15.87045083 25.23025866 12 15 C11.34 15 10.68 15 10 15 Z " fill="#4B4F55" transform="translate(1037,128)"/>
<path d="M0 0 C8.72483904 7.54113374 14.14488303 15.64665395 18.5625 26.21484375 C18.5625 26.87484375 18.5625 27.53484375 18.5625 28.21484375 C6.74281891 29.3994443 6.74281891 29.3994443 1.5625 28.21484375 C-0.95559875 25.97152858 -1.86421132 24.02553177 -3.20703125 20.953125 C-6.81611187 12.92148845 -14.50627308 8.30120355 -22.4375 5.21484375 C-33.15703962 1.57327766 -46.13636216 1.66011829 -56.6953125 5.828125 C-68.85294895 11.97621751 -76.55470676 20.52341027 -81.4375 33.1640625 C-85.89677325 46.76832973 -85.55061547 60.44347419 -79.9609375 73.72265625 C-73.55437096 86.33101323 -65.37004648 93.01308616 -52.4375 98.21484375 C-40.77621381 101.90233155 -28.38353673 100.44628292 -17.4375 95.21484375 C-8.12088299 90.12234851 -2.80097036 83.78091339 1.5625 74.21484375 C7.1725 74.21484375 12.7825 74.21484375 18.5625 74.21484375 C15.90647124 87.49498753 7.44889839 97.94128111 -3.59375 105.46484375 C-18.34768645 114.54418926 -35.56024752 117.72062471 -52.57568359 114.08398438 C-69.28950213 110.05387135 -82.54000726 101.31647894 -91.9765625 86.81640625 C-101.2972765 70.21855725 -103.36208004 50.57738384 -98.875 32.08984375 C-93.48393727 15.06543512 -83.6764533 3.15340975 -68.4375 -5.78515625 C-46.3163137 -16.53197371 -19.70867117 -15.38307619 0 0 Z " fill="#4B4F55" transform="translate(1439.4375,137.78515625)"/>
<path d="M0 0 C4.95 0 9.9 0 15 0 C15 17.49 15 34.98 15 53 C36.12 53 57.24 53 79 53 C79 35.51 79 18.02 79 0 C83.95 0 88.9 0 94 0 C94 40.59 94 81.18 94 123 C89.05 123 84.1 123 79 123 C79 104.52 79 86.04 79 67 C57.88 67 36.76 67 15 67 C15 85.48 15 103.96 15 123 C10.05 123 5.1 123 0 123 C0 82.41 0 41.82 0 0 Z " fill="#4B4F55" transform="translate(1495,128)"/>
<path d="M0 0 C23.1 0 46.2 0 70 0 C70 4.62 70 9.24 70 14 C51.85 14 33.7 14 15 14 C15 26.87 15 39.74 15 53 C30.84 53 46.68 53 63 53 C63 57.62 63 62.24 63 67 C47.16 67 31.32 67 15 67 C15 80.86 15 94.72 15 109 C33.81 109 52.62 109 72 109 C72 113.62 72 118.24 72 123 C48.24 123 24.48 123 0 123 C0 82.41 0 41.82 0 0 Z " fill="#4B4F55" transform="translate(1237,128)"/>
<path d="M0 0 C4.96346965 -1.62135867 9.42676581 -2.4633871 14.58349609 -1.27685547 C23.07436483 3.20963104 27.79464623 16.83011499 31.98974609 25.12060547 C34.89584348 30.81252728 38.23591524 36.23297468 41.5625 41.6875 C42.63195314 43.45884002 43.69633347 45.23326007 44.75390625 47.01171875 C45.19033447 47.73834717 45.6267627 48.46497559 46.07641602 49.21362305 C47 51 47 51 47 53 C49.67813752 50.5849251 51.3043511 47.98947088 53.08203125 44.86328125 C53.67669189 43.82155762 54.27135254 42.77983398 54.8840332 41.70654297 C55.52042725 40.58650879 56.15682129 39.46647461 56.8125 38.3125 C57.48588836 37.15433347 58.16063045 35.99695306 58.83666992 34.84033203 C62.25943702 28.95987804 65.50099605 23.07012729 68.46875 16.94140625 C76.36861793 1.13821815 76.36861793 1.13821815 81.36376953 -1.02246094 C86.78131194 -2.03424036 91.69577963 -1.29899274 97 0 C95.40748188 4.42177905 93.1503372 8.35572007 90.75 12.375 C90.31526367 13.10831543 89.88052734 13.84163086 89.43261719 14.59716797 C84.70753573 22.54090248 79.89614608 30.43272237 75.078125 38.3203125 C74.4917627 39.31442139 73.90540039 40.30853027 73.30126953 41.33276367 C71.50912019 44.29060308 69.51550986 47.0566513 67.47607422 49.84887695 C56.49018842 65.46413187 55.07574425 78.17002468 55.625 96.9375 C55.64707711 99.48237408 55.66273634 102.02731219 55.671875 104.57226562 C55.7075874 110.71809298 55.82900059 116.85651009 56 123 C51.05 123 46.1 123 41 123 C41.08809937 120.72077637 41.08809937 120.72077637 41.17797852 118.39550781 C43.09025531 77.98062038 43.09025531 77.98062038 25.43115234 43.14404297 C21.43255735 37.97293367 18.2097373 32.35648172 14.90478516 26.72689819 C13.20144038 23.8389883 11.45254731 20.97980832 9.70703125 18.1171875 C9.0826416 17.08561523 8.45825195 16.05404297 7.81494141 14.99121094 C6.61039774 13.00599853 5.39918126 11.02481876 4.18115234 9.04785156 C3.63023926 8.14776367 3.07932617 7.24767578 2.51171875 6.3203125 C2.02533936 5.53156738 1.53895996 4.74282227 1.0378418 3.93017578 C0 2 0 2 0 0 Z " fill="#4B4F55" transform="translate(615,128)"/>
<path d="M0 0 C28.38 0 56.76 0 86 0 C86 4.62 86 9.24 86 14 C74.12 14 62.24 14 50 14 C50 49.97 50 85.94 50 123 C45.05 123 40.1 123 35 123 C35 87.03 35 51.06 35 14 C23.45 14 11.9 14 0 14 C0 9.38 0 4.76 0 0 Z " fill="#4B4F55" transform="translate(1116,128)"/>
<path d="M0 0 C4.62 0 9.24 0 14 0 C19.61 17.49 25.22 34.98 31 53 C32.84899788 50.22650318 33.70119581 48.20337511 34.69580078 45.06958008 C35.01598175 44.06876907 35.33616272 43.06795807 35.66604614 42.03681946 C36.00570404 40.95861435 36.34536194 39.88040924 36.6953125 38.76953125 C37.04761932 37.66397385 37.39992615 36.55841644 37.76290894 35.4193573 C38.88803676 31.88512913 40.0065885 28.34885862 41.125 24.8125 C41.88628683 22.41718039 42.64800028 20.02199633 43.41015625 17.62695312 C45.27839303 11.75286393 47.14073437 5.8769346 49 0 C53.62 0 58.24 0 63 0 C63 21.45 63 42.9 63 65 C60.36 65 57.72 65 55 65 C54.67 47.84 54.34 30.68 54 13 C52.85660156 16.58617187 51.71320312 20.17234375 50.53515625 23.8671875 C49.43016095 27.32906416 48.32460513 30.79076134 47.21899414 34.25244141 C46.44920103 36.6637123 45.67999341 39.07517019 44.91137695 41.48681641 C43.8083329 44.94743045 42.70320487 48.40737289 41.59765625 51.8671875 C41.25283707 52.95055389 40.90801788 54.03392029 40.55274963 55.15011597 C40.07236488 56.65144577 40.07236488 56.65144577 39.58227539 58.18310547 C39.15924889 59.50881058 39.15924889 59.50881058 38.72767639 60.86129761 C38 63 38 63 37 65 C33.37 65 29.74 65 26 65 C20.33333333 48 14.66666667 31 9 14 C8.67 30.83 8.34 47.66 8 65 C5.36 65 2.72 65 0 65 C0 43.55 0 22.1 0 0 Z " fill="#8F9295" transform="translate(645,296)"/>
<path d="M0 0 C4.29 0 8.58 0 13 0 C18.45592378 10.34452805 23.89647189 20.69702156 29.3125 31.0625 C29.80331055 32.00037354 30.29412109 32.93824707 30.79980469 33.90454102 C31.27450195 34.81389404 31.74919922 35.72324707 32.23828125 36.66015625 C32.65118408 37.45043213 33.06408691 38.24070801 33.48950195 39.05493164 C35.69375676 43.35264067 37.83995175 47.6799035 40 52 C40.33 34.84 40.66 17.68 41 0 C43.97 0 46.94 0 50 0 C50 21.45 50 42.9 50 65 C45.38 65 40.76 65 36 65 C27.42 47.84 18.84 30.68 10 13 C9.67 30.16 9.34 47.32 9 65 C6.03 65 3.06 65 0 65 C0 43.55 0 22.1 0 0 Z " fill="#8F9295" transform="translate(920,296)"/>
<path d="M0 0 C5.38625174 4.57109104 9.75613161 10.70085567 11.0390625 17.73046875 C11.98885944 29.53843808 11.49342793 39.26610011 4.0390625 48.98046875 C-2.40147759 55.85316629 -11.43393054 59.4541184 -20.7109375 59.91796875 C-30.28433419 59.72076395 -39.02825984 56.83931347 -45.8203125 49.8046875 C-52.70370133 41.03007055 -54.7883168 31.75234294 -53.9609375 20.73046875 C-52.10800986 11.2205901 -47.49961363 3.82053653 -39.9609375 -2.26953125 C-26.82472507 -9.8674799 -12.22779333 -8.74956943 0 0 Z M-38.8984375 8.54296875 C-44.81075164 16.15646762 -46.14711447 23.21845914 -44.9609375 32.73046875 C-42.83885146 39.61545903 -39.0772802 44.89350842 -32.9609375 48.73046875 C-26.45365845 52.10603954 -20.54971815 52.6205536 -13.4609375 50.60546875 C-7.09028755 48.27209611 -2.72188715 44.64132883 0.4140625 38.60546875 C3.50024718 31.923208 3.98944731 25.29898523 1.9140625 18.23046875 C-0.48019041 11.78269 -3.8734331 6.50912559 -10.0859375 3.29296875 C-20.29881359 -1.28026693 -31.16576443 0.12367355 -38.8984375 8.54296875 Z " fill="#8F9295" transform="translate(611.9609375,302.26953125)"/>
<path d="M0 0 C3.9374352 -0.05893685 7.87475427 -0.09390669 11.8125 -0.125 C13.46282227 -0.15013672 13.46282227 -0.15013672 15.14648438 -0.17578125 C26.18050443 -0.24087871 37.60489168 0.25132862 46.1640625 7.9453125 C54.23373723 16.36711849 55.48579192 24.01989563 55.42456055 35.3269043 C55.14319131 44.35048148 52.66150781 51.6345592 46 58 C35.93730247 65.43314488 23.78600265 65.30973204 11.75 65.125 C10.61175781 65.11597656 9.47351563 65.10695313 8.30078125 65.09765625 C5.53362119 65.0744028 2.7669324 65.04172868 0 65 C0 62.36 0 59.72 0 57 C1.98 57 3.96 57 6 57 C6 40.83 6 24.66 6 8 C4.02 8 2.04 8 0 8 C0 5.36 0 2.72 0 0 Z M14 8 C14 24.17 14 40.34 14 57 C28.34974186 57.65615317 28.34974186 57.65615317 39.76953125 51.45703125 C44.78960672 46.1193841 47.10403922 40.35586102 47.375 33.0625 C47.0897415 25.31297741 44.93440149 19.14152963 39.61328125 13.4375 C32.08772931 6.73192345 23.82374655 8 14 8 Z " fill="#8F9295" transform="translate(994,296)"/>
<path d="M0 0 C31.16621046 0 31.16621046 0 37.59375 6.23046875 C41.53691552 11.19228537 42.6696388 16.75003784 42 23 C40.62007762 28.58387196 38.54015176 32.30452764 34 36 C32.01340263 37.02636781 30.01478144 38.0301259 28 39 C29.08407202 40.62610802 30.16817788 42.25219349 31.25244141 43.87817383 C32.16938333 45.25391292 33.08572216 46.63005416 34.00146484 48.0065918 C35.98750512 50.99059437 37.97897364 53.96919967 40 56.9296875 C40.53625 57.71601563 41.0725 58.50234375 41.625 59.3125 C42.09164063 59.98925781 42.55828125 60.66601562 43.0390625 61.36328125 C44 63 44 63 44 65 C40.46992483 65.69750343 37.51033971 65.87694992 34 65 C30.72029561 61.86252769 28.69063162 58.13407513 26.5 54.1875 C25.89414063 53.16333984 25.28828125 52.13917969 24.6640625 51.08398438 C23.54382107 49.18579751 22.43859277 47.27861252 21.35351562 45.36010742 C20.3050159 43.53185222 19.16907179 41.75360768 18 40 C14.7 39.67 11.4 39.34 8 39 C8 47.58 8 56.16 8 65 C5.36 65 2.72 65 0 65 C0 43.55 0 22.1 0 0 Z M8 8 C8 15.92 8 23.84 8 32 C20.26884542 32.70036069 20.26884542 32.70036069 30.875 27.5 C33.53210496 23.95719339 33.35916903 20.23819454 33 16 C31.33442378 12.73053557 30.12753568 10.61558474 26.875 8.83984375 C23.12241532 7.74364034 19.55411209 7.78585848 15.6875 7.875 C13.150625 7.91625 10.61375 7.9575 8 8 Z " fill="#8F9295" transform="translate(1378,296)"/>
<path d="M0 0 C2.97 0 5.94 0 9 0 C9 9.24 9 18.48 9 28 C19.56 28 30.12 28 41 28 C41 18.76 41 9.52 41 0 C43.64 0 46.28 0 49 0 C49 21.45 49 42.9 49 65 C46.36 65 43.72 65 41 65 C41 55.43 41 45.86 41 36 C30.44 36 19.88 36 9 36 C9 45.57 9 55.14 9 65 C6.03 65 3.06 65 0 65 C0 43.55 0 22.1 0 0 Z " fill="#8F9295" transform="translate(487,296)"/>
<path d="M0 0 C3.63 0 7.26 0 11 0 C14.33030603 7.85194545 17.47395825 15.74844155 20.42578125 23.75 C20.81823532 24.81114014 21.21068939 25.87228027 21.61503601 26.96557617 C22.43395907 29.1834055 23.25147722 31.40175407 24.06762695 33.62060547 C25.32047554 37.0216508 26.58298411 40.41901517 27.84570312 43.81640625 C28.64382267 45.98155215 29.4413696 48.14690923 30.23828125 50.3125 C30.61632401 51.32602539 30.99436676 52.33955078 31.38386536 53.38378906 C31.72810043 54.32577148 32.07233551 55.26775391 32.42700195 56.23828125 C32.731689 57.06368408 33.03637604 57.88908691 33.35029602 58.73950195 C34 61 34 61 34 65 C31.36 65 28.72 65 26 65 C25.16013916 63.06532058 24.32831973 61.12714871 23.5 59.1875 C23.0359375 58.10855469 22.571875 57.02960938 22.09375 55.91796875 C21 53 21 53 21 50 C10.77 50 0.54 50 -10 50 C-10.99 53.63 -11.98 57.26 -13 61 C-13.66 62.32 -14.32 63.64 -15 65 C-17.97 65 -20.94 65 -24 65 C-21.80465356 57.34861105 -19.19588185 49.93835549 -16.3671875 42.5 C-15.92988312 41.34250244 -15.49257874 40.18500488 -15.04202271 38.99243164 C-14.12416774 36.56482838 -13.20469945 34.13783455 -12.28369141 31.71142578 C-10.86919854 27.98471512 -9.45957382 24.25621251 -8.05078125 20.52734375 C-7.15652942 18.16395676 -6.26200784 15.80067181 -5.3671875 13.4375 C-4.94428436 12.31988281 -4.52138123 11.20226562 -4.08566284 10.05078125 C-3.49967819 8.50777344 -3.49967819 8.50777344 -2.90185547 6.93359375 C-2.55782684 6.02665771 -2.21379822 5.11972168 -1.85934448 4.18530273 C-1 2 -1 2 0 0 Z M5 9 C3.28893169 13.53819914 1.5799899 18.07719097 -0.12695312 22.61694336 C-0.70839436 24.16241286 -1.2904245 25.70766093 -1.87304688 27.25268555 C-2.7085679 29.46866352 -3.54199391 31.68541937 -4.375 33.90234375 C-4.63748535 34.5971434 -4.8999707 35.29194305 -5.17041016 36.00779724 C-6.4504505 38.92613697 -6.4504505 38.92613697 -7 42 C0.92 42 8.84 42 17 42 C16.22462204 37.34773225 15.34443295 33.83963188 13.71484375 29.5078125 C13.26689453 28.30898438 12.81894531 27.11015625 12.35742188 25.875 C11.88423277 24.62495526 11.410924 23.3749558 10.9375 22.125 C10.45978804 20.85174939 9.98256966 19.57831348 9.50585938 18.3046875 C8.34207756 15.20126933 7.17331032 12.09982553 6 9 C5.67 9 5.34 9 5 9 Z " fill="#8F9295" transform="translate(867,296)"/>
<path d="M0 0 C4.46754383 3.95599301 7.87350679 8.91899151 9.046875 14.8125 C5.60064348 15.29430324 2.47218795 15.51024893 -0.953125 14.8125 C-2.68255631 12.95953788 -3.6131294 11.1175887 -4.7421875 8.85546875 C-7.04442295 4.97137475 -10.77629279 3.65514473 -14.890625 2.0625 C-23.28075387 1.04551468 -29.20000375 2.2863607 -36.203125 7 C-41.35641318 12.27040836 -44.04183601 18.62102878 -44.203125 26 C-44.08154302 33.40434243 -41.9270546 39.8516384 -36.81640625 45.3046875 C-32.27063834 48.98323344 -26.65790229 50.97457745 -20.828125 51.25 C-14.23328899 50.50542174 -8.72956735 48.58894235 -3.953125 43.8125 C-2.14333359 40.69587092 -2.14333359 40.69587092 -0.953125 37.8125 C2.346875 37.8125 5.646875 37.8125 9.046875 37.8125 C7.1805275 45.27789 2.52803371 51.56764828 -3.90625 55.78125 C-12.71786831 60.22069129 -22.15120368 60.97239181 -31.65625 58.62890625 C-40.5175047 55.47924259 -47.26475876 48.7907616 -51.328125 40.4375 C-54.44071327 31.88442131 -54.46105464 20.90658467 -51.453125 12.3125 C-47.52318685 4.20354311 -41.50015376 -2.16599178 -32.953125 -5.1875 C-21.18533606 -9.16372556 -10.10363444 -7.16569818 0 0 Z " fill="#8F9295" transform="translate(1275.953125,302.1875)"/>
<path d="M0 0 C2.8421442 2.24598712 5.16128005 4.31838644 6.1640625 7.828125 C6.30922959 10.51890062 6.2540465 13.12860489 6.1640625 15.828125 C3.5240625 15.828125 0.8840625 15.828125 -1.8359375 15.828125 C-2.2071875 14.57 -2.5784375 13.311875 -2.9609375 12.015625 C-4.17217947 8.83259378 -4.68926471 7.93727684 -7.5234375 5.828125 C-12.58267562 4.30080783 -16.7449354 3.87353708 -21.7109375 6.140625 C-24.60090482 8.43559905 -25.74116535 10.08574315 -26.2109375 13.765625 C-26.08088178 16.8053324 -26.08088178 16.8053324 -24.45703125 18.80859375 C-19.87065186 22.34236148 -14.22624856 23.42712628 -8.72070312 25.0078125 C-2.68972888 26.8595402 1.92895519 29.03769842 6.1640625 33.828125 C8.38298861 38.26597721 8.90758643 42.92637467 8.1640625 47.828125 C6.09892215 53.96773145 2.97768772 57.56851006 -2.609375 60.87890625 C-9.76477607 63.92936671 -18.48085036 63.42254344 -25.6796875 60.83984375 C-31.26141348 58.22088174 -34.61813374 54.66445068 -36.8359375 48.828125 C-37.5234375 44.953125 -37.5234375 44.953125 -37.8359375 41.828125 C-34.8659375 41.828125 -31.8959375 41.828125 -28.8359375 41.828125 C-28.5059375 43.065625 -28.1759375 44.303125 -27.8359375 45.578125 C-26.54748654 48.98979796 -25.36615845 50.583349 -22.1484375 52.328125 C-16.64496879 54.60019924 -12.06466973 54.73612702 -6.4609375 52.453125 C-3.79895719 50.94383758 -3.79895719 50.94383758 -1.8359375 48.828125 C-1.36570999 46.79795836 -1.36570999 46.79795836 -1.3359375 44.515625 C-1.284375 43.75636719 -1.2328125 42.99710937 -1.1796875 42.21484375 C-2.19545965 38.52057719 -4.67440852 36.72395739 -7.8359375 34.828125 C-10.61271669 33.71393895 -13.43185519 32.97250619 -16.3359375 32.265625 C-23.11746994 30.57918064 -29.20882015 28.42937231 -33.8359375 22.828125 C-35.84732697 16.7939566 -35.91350252 10.06307467 -33.1484375 4.328125 C-24.28437413 -5.25464621 -11.34856097 -7.24376232 0 0 Z " fill="#8F9295" transform="translate(1137.8359375,299.171875)"/>
<path d="M0 0 C12.21 0 24.42 0 37 0 C37 2.64 37 5.28 37 8 C27.76 8 18.52 8 9 8 C9 14.6 9 21.2 9 28 C16.92 28 24.84 28 33 28 C33 30.64 33 33.28 33 36 C25.08 36 17.16 36 9 36 C9 42.93 9 49.86 9 57 C18.57 57 28.14 57 38 57 C38 59.64 38 62.28 38 65 C25.46 65 12.92 65 0 65 C0 43.55 0 22.1 0 0 Z " fill="#8F9295" transform="translate(1167,296)"/>
<path d="M0 0 C2.64 0 5.28 0 8 0 C8.00586624 0.54821915 8.01173248 1.09643829 8.01777649 1.66127014 C8.08191437 7.38836428 8.16638565 13.11490706 8.26245117 18.84155273 C8.29562117 20.97624422 8.32367758 23.11102173 8.34643555 25.24584961 C8.38012717 28.32182331 8.43245103 31.39701426 8.48828125 34.47265625 C8.49467117 35.42084732 8.5010611 36.36903839 8.50764465 37.34596252 C8.63137523 42.97427184 9.29903607 47.02718966 12 52 C16.40075131 56.18071374 19.85634353 57.30090643 25.9375 57.22265625 C29.80220885 56.80544336 32.65103327 54.96354766 35.75 52.75 C39.67671026 47.25260564 39.33352654 40.14976506 39.4140625 33.69140625 C39.43342865 32.72468491 39.4527948 31.75796356 39.4727478 30.76194763 C39.53219191 27.69555287 39.57878769 24.62911984 39.625 21.5625 C39.66321217 19.47459364 39.70226576 17.3867025 39.7421875 15.29882812 C39.83786438 10.19934338 39.92202455 5.09978489 40 0 C42.64 0 45.28 0 48 0 C48.07645954 6.52865035 48.12877088 13.05718396 48.16479492 19.58618164 C48.17982277 21.8043245 48.20025077 24.02243793 48.22631836 26.24047852 C48.26296624 29.44034108 48.27978688 32.63980861 48.29296875 35.83984375 C48.30845261 36.82145981 48.32393646 37.80307587 48.33988953 38.81443787 C48.34158334 45.84326547 47.59494237 52.5361629 43.2734375 58.3046875 C36.93873132 63.54450619 30.54036359 66.660026 22.109375 66.2890625 C15.71597986 65.41293057 9.52977808 63.79623562 5 59 C1.44093621 53.81877788 -0.12994002 49.37720651 -0.11352539 43.13964844 C-0.11344986 42.17895447 -0.11337433 41.2182605 -0.11329651 40.22845459 C-0.10813522 39.19915833 -0.10297394 38.16986206 -0.09765625 37.109375 C-0.0962413 36.04962463 -0.09482635 34.98987427 -0.09336853 33.89801025 C-0.08777382 30.51531138 -0.07522225 27.13267885 -0.0625 23.75 C-0.05748432 21.45573012 -0.05292153 19.16145921 -0.04882812 16.8671875 C-0.03780611 11.24476906 -0.02107321 5.62238927 0 0 Z " fill="#8F9295" transform="translate(1305,296)"/>
<path d="M0 0 C12.21 0 24.42 0 37 0 C37 2.64 37 5.28 37 8 C27.43 8 17.86 8 8 8 C8 14.6 8 21.2 8 28 C16.25 28 24.5 28 33 28 C33 30.64 33 33.28 33 36 C24.75 36 16.5 36 8 36 C8 42.93 8 49.86 8 57 C17.9 57 27.8 57 38 57 C38 59.64 38 62.28 38 65 C25.46 65 12.92 65 0 65 C0 43.55 0 22.1 0 0 Z " fill="#8F9295" transform="translate(734,296)"/>
<path d="M0 0 C3.15028987 -0.56705218 5.86221398 -0.70535355 9 0 C11.78553988 2.47603545 13.25144826 5.7463144 15 9 C15.85720113 10.46451327 16.72103524 11.92515525 17.58984375 13.3828125 C20.08726774 17.57298863 22.54966176 21.78212528 25 26 C27.65119272 23.5985645 29.30947944 21.01485546 31.1015625 17.9296875 C31.96007813 16.46208984 31.96007813 16.46208984 32.8359375 14.96484375 C33.42632813 13.94519531 34.01671875 12.92554688 34.625 11.875 C35.80343583 9.85083328 36.98305865 7.82735698 38.1640625 5.8046875 C38.68436035 4.90733887 39.2046582 4.00999023 39.74072266 3.08544922 C41 1 41 1 42 0 C43.51928038 -0.07179964 45.04167482 -0.08392007 46.5625 -0.0625 C47.38878906 -0.05347656 48.21507812 -0.04445313 49.06640625 -0.03515625 C49.70449219 -0.02355469 50.34257813 -0.01195312 51 0 C50.34251217 3.38735392 49.03679185 5.8999731 47.26953125 8.8515625 C46.43518555 10.25341797 46.43518555 10.25341797 45.58398438 11.68359375 C44.99939453 12.65425781 44.41480469 13.62492187 43.8125 14.625 C43.24724609 15.57246094 42.68199219 16.51992188 42.09960938 17.49609375 C41.53693359 18.43839844 40.97425781 19.38070313 40.39453125 20.3515625 C39.55293457 21.77927979 39.55293457 21.77927979 38.69433594 23.23583984 C37 26 37 26 35.26660156 28.40869141 C30.19982115 35.70068576 30.10772482 42.4183071 30.125 51.125 C30.10683158 52.47660095 30.08601603 53.82816901 30.0625 55.1796875 C30.01572761 58.45375448 29.99552949 61.72566975 30 65 C27.36 65 24.72 65 22 65 C22.03778564 64.26700684 22.07557129 63.53401367 22.11450195 62.77880859 C22.84128524 44.39850225 20.34558805 32.31596359 9.63867188 17.31494141 C7.32975336 14.05314681 5.2596869 10.66470311 3.1875 7.25 C2.24970703 5.77273438 2.24970703 5.77273438 1.29296875 4.265625 C0 2 0 2 0 0 Z " fill="#8F9295" transform="translate(1545,296)"/>
<path d="M0 0 C15.18 0 30.36 0 46 0 C46 2.64 46 5.28 46 8 C39.73 8 33.46 8 27 8 C27 26.81 27 45.62 27 65 C24.36 65 21.72 65 19 65 C19 46.19 19 27.38 19 8 C12.73 8 6.46 8 0 8 C0 5.36 0 2.72 0 0 Z " fill="#8F9295" transform="translate(1487,296)"/>
<path d="M0 0 C8.91 0 17.82 0 27 0 C27 2.64 27 5.28 27 8 C23.7 8 20.4 8 17 8 C17 24.17 17 40.34 17 57 C20.3 57 23.6 57 27 57 C27 59.64 27 62.28 27 65 C18.09 65 9.18 65 0 65 C0 62.36 0 59.72 0 57 C2.97 57 5.94 57 9 57 C9 40.83 9 24.66 9 8 C6.03 8 3.06 8 0 8 C0 5.36 0 2.72 0 0 Z " fill="#8F9295" transform="translate(1442,296)"/>
<path d="M0 0 C2.97 0 5.94 0 9 0 C9 18.81 9 37.62 9 57 C17.91 57 26.82 57 36 57 C36 59.64 36 62.28 36 65 C24.12 65 12.24 65 0 65 C0 43.55 0 22.1 0 0 Z " fill="#8F9295" transform="translate(793,296)"/>
</svg>
